<?xml version="1.0" encoding="UTF-8"?>
<svg id="Layer_1" data-name="Layer 1" xmlns="http://www.w3.org/2000/svg" version="1.1" viewBox="0 0 2000 2000">
  <defs>
    <style>
      .cls-1 {
        fill: #ef4036;
        stroke-width: 0px;
      }
    </style>
  </defs>
  <path class="cls-1" d="M1299.28,1931.08c-39.73,0-72.08-.26-92.58-.89-111.94-3.44-301.46-3.48-430.82-1.73-93.78,1.27-372.9-8.16-539.67-13.79-58.1-1.96-108.27-3.66-115.39-3.66h-3.37c-24.43-.07-81.38.23-88.45-77.46-2.03-22.26-.76-174.48,1.66-441.59,1.59-175.9,3.39-375.28,3.39-503.13,0-281.59,3.45-639.26,5.25-718.29.59-25.78,4.29-54.76,27.29-74.24,18.65-15.78,39.93-17.21,60.51-18.58,8.88-.59,18.07-1.21,28.67-2.86,42.43-6.63,252.04-6.08,521.67-4.68,64.65.34,125.72.65,169.38.65s117.12-.32,201.88-.69c277.02-1.2,656.41-2.85,733.19,2.54,14.63,1.03,28,1.69,40.93,2.34,39.47,1.97,70.65,3.53,95.78,14.21,24.89,10.57,54.35,34.79,53.36,90.11-1.19,66.55-.74,285.75-.35,479.13.18,89.51.35,174.21.35,237.34,0,144.1-5.27,545.49-8.43,785.31-1.18,90.26-2.04,155.47-2.04,164.07,0,15.2,0,46.83-27.06,66.06-18.53,13.17-40.9,14.22-68.22,14.22-11.35,0-52.65.54-109.8,1.28-131.97,1.72-331.48,4.32-457.15,4.32ZM956.92,1837.56c92.32,0,185.93.86,252.55,2.91,83.36,2.56,384.18-1.36,545.79-3.47,57.5-.75,99.04-1.29,110.97-1.29,2.03,0,3.89-.01,5.59-.03.23-22.28.96-78.14,1.98-155.75,2.94-223.89,8.42-640.62,8.42-784.13,0-63.08-.17-147.72-.35-237.15-.39-193.81-.84-413.47.36-480.92.05-3-.09-5.14-.27-6.58-10.64-3.84-39.79-5.29-63.61-6.48-12.74-.64-27.19-1.36-42.73-2.45-73.45-5.16-466.46-3.46-726.52-2.32-84.86.37-158.16.69-202.27.69s-105.08-.32-169.85-.65c-186.63-.97-468.65-2.44-507.35,3.61-14.52,2.27-26.74,3.09-36.55,3.74-1.24.08-2.54.17-3.85.26-.08,1.48-.14,3.15-.19,5.03h0c-1.79,78.69-5.23,435.26-5.23,716.26,0,128.25-1.8,327.85-3.4,503.94-1.74,192.87-3.54,391.99-2.24,428.49h2.63c8.27,0,44.27,1.2,118.42,3.7,155.09,5.24,443.79,15.04,535.43,13.75,53.67-.73,117.65-1.14,182.25-1.14Z"/>
  <path class="cls-1" d="M517.89,1258.35c-50.83,0-87.48-6.92-115.52-21.41-41.35-21.37-63.76-58.32-68.51-112.97-3.19-36.7,1.5-69.02,8.21-94.5-23.05-2.86-50.13-5.71-74.68-7-58.1-3.07-185.75,1.59-187.02,1.63l-3.31-89.7c5.4-.2,132.95-4.83,195.05-1.57,62.55,3.3,136.42,15.29,139.53,15.8,14.82,2.42,27.62,11.79,33.82,25.46,6.2,13.67,5.33,29.24-2.61,41.98-.07.13-24.53,43.03-19.56,100.12,2.8,32.21,5.22,60.06,139.39,50.67,36.4-2.54,46.8-16.29,50.22-20.81,22.58-29.87,9.4-92.73,3.78-119.57l-.93-4.45c-6.18-29.84-1.12-53.65,15.03-70.74,25.11-26.58,61.25-21.22,87.62-17.32l5.8.85c7.44,1.06,25.36,3.89,52.49,8.17,95.11,14.99,293.02,46.19,365.85,52.36,47.23,4,95.22,3.81,130.18,2.71-1.55-8.08-3-16.67-4.21-25.54-9.25-67.81.03-115.06,28.36-144.44,57.27-59.39,209.64-85.12,299.27-29.36,66.39,41.31,58,126.93,41.2,187.74,115.64-6.78,282.55-26.08,284.59-26.32l10.36,89.16c-10.28,1.2-252.87,29.25-359.86,29.25-15.39,0-29.7-7.88-37.93-20.88-8.23-13-9.22-29.31-2.63-43.22,22.76-48.43,40.21-124.98,16.85-139.52-23.96-14.91-62.58-20.87-103.34-15.95-41.68,5.03-72.71,19.81-83.89,31.4-3.27,3.39-10.38,22.37-4.19,68.92,4.72,35.44,14.57,66.91,14.67,67.22,4.1,13.01,2.08,27.21-5.53,38.54-7.6,11.33-19.94,18.61-33.53,19.74-4.07.34-100.89,8.23-197.96,0-76.04-6.44-276.1-37.98-372.25-53.13-25.78-4.06-44.41-7-51.2-7.97l-3.9-.57c3.5,18.01,7.33,41.82,7.75,67.06.74,44.94-9.63,81.95-30.84,110-25.51,33.74-64.39,52.67-115.58,56.24-18.46,1.29-35.42,1.94-51.04,1.94ZM702.94,998.81h0s0,0,0,0Z"/>
  <path class="cls-1" d="M1017.82,1886.52l-89.77-.66c.02-2.24,1.62-224.98.03-267.92-.52-13.88-2.08-56.12,30.81-78.69,31.88-21.89,72.39-9.08,104.11,4.51,33.61,14.41,67.96,17.25,87.52,7.25,7.54-3.85,18.19-11.85,23.77-36.69,13.4-59.78,1.93-115.99-16.32-140.62-8.49-11.46-15.11-11.95-17.28-12.12-45.46-3.4-110.65,16.98-131.95,25.12-20.8,7.96-44.34-.53-55.22-19.96-5.2-9.26-30.83-62.27-25.55-196.47,3.39-86.35,26.74-233.2,43.78-340.42,6.93-43.57,14.07-88.51,15.38-102.99-43.08,6.66-101.53,2.29-144.98-30.15-25.61-19.12-56.89-56.24-60.48-124.51-3.52-66.9,10.46-120.09,41.55-158.09,32.97-40.3,74.7-50.73,96.64-53.37,25.75-3.1,50.66-.23,70.55,2.73,4.69-52.06,7.87-157.65,8.38-248.69l89.77.5c0,.74-.44,74.87-2.91,148.45-1.46,43.66-3.36,78.77-5.62,104.34-3.49,39.4-7.1,80.14-45.76,87.83-14.72,2.92-30.18.52-48.1-2.27-17.73-2.76-37.82-5.9-55.61-3.76-41.32,4.96-62.92,47.83-59.24,117.61,1.43,27.29,9.46,46.04,24.55,57.29,24.08,17.98,64.82,16.82,86.34,11.66,12.49-2.99,45.67-10.96,71.54,10.37,25.87,21.32,24.48,53.19,23.26,81.3-.65,15.03-6.14,50.06-16.6,115.84-15.75,99.08-39.55,248.82-42.74,329.86-2.09,53.22,1.32,90.16,5.4,114.1,34.14-9.39,81.56-19.02,124.33-15.83,32.55,2.44,61.14,19.1,82.69,48.19,37.17,50.16,49.65,134.04,31.79,213.7-12.75,56.88-45.37,84.13-70.49,96.98-64.67,33.07-141.69,4.79-163.75-4.67-3.61-1.55-6.82-2.83-9.64-3.9,1.3,57.89-.13,255.35-.19,264.15Z"/>
</svg>