<?xml version="1.0" encoding="UTF-8" standalone="no"?>
<svg xmlns="http://www.w3.org/2000/svg" width="132" height="22" viewBox="0 0 132 22" fill="none" version="1.1">
  <g transform="translate(-43, 0)">
    <path
       d="m 62.064999,8.591 -8.631,4.859 L 44.192,8.258 43.747,8.498 v 3.77 l 9.686999,5.431 8.63,-4.84 v 1.995 l -8.63,4.86 -9.241999,-5.192 -0.445,0.24 v 0.646 l 9.686999,5.432 9.668,-5.432 v -3.769 l -0.445,-0.24 -9.223,5.173 L 44.784,11.732 V 9.736 l 8.649999,4.84 9.668,-5.43 V 5.43 l -0.482,-0.277 -9.186,5.155 -8.204999,-4.582 8.204999,-4.6 6.741,3.787 0.593,-0.332 V 4.119 L 53.433999,0 43.747,5.431 v 0.592 l 9.686999,5.432 8.63,-4.86 z"
       fill="#ee3d2c" />
  </g>
  <g transform="translate(-1.15, 0)">
    <path
       d="M 37.449,18.443 V 1.852 h -2.556 v 6.207 c 0,0.093 -0.056,0.167 -0.148,0.204 A 0.23,0.23 0 0 1 34.505,8.207 C 33.634,7.191 32.282,6.618 30.8,6.618 c -3.167,0 -5.65,2.66 -5.65,6.06 0,1.663 0.575,3.197 1.63,4.324 a 5.44,5.44 0 0 0 4.02,1.736 c 1.463,0 2.815,-0.61 3.704,-1.662 0.056,-0.074 0.167,-0.093 0.24,-0.074 0.093,0.037 0.15,0.11 0.15,0.203 v 1.238 z m -6.093,-2.014 c -2.038,0 -3.63,-1.644 -3.63,-3.75 0,-2.107 1.592,-3.751 3.63,-3.751 2.038,0 3.63,1.644 3.63,3.75 0,2.106 -1.593,3.75 -3.63,3.75 m 19.762,2.016 V 6.896 H 48.581 V 8.06 c 0,0.093 -0.056,0.166 -0.149,0.203 A 0.2,0.2 0 0 1 48.192,8.19 C 47.34,7.173 46.006,6.6 44.487,6.6 c -3.167,0 -5.649,2.661 -5.649,6.06 0,3.4 2.482,6.06 5.65,6.06 1.463,0 2.815,-0.61 3.704,-1.68 0.055,-0.075 0.166,-0.093 0.24,-0.075 0.093,0.037 0.149,0.111 0.149,0.204 v 1.256 h 2.537 z M 45.062,16.43 c -2.038,0 -3.63,-1.645 -3.63,-3.75 0,-2.107 1.592,-3.751 3.63,-3.751 2.038,0 3.63,1.644 3.63,3.75 0,2.106 -1.593,3.75 -3.63,3.75 m 27.781,2.015 V 6.896 H 70.305 V 8.06 c 0,0.093 -0.055,0.166 -0.148,0.203 -0.093,0.037 -0.185,0 -0.24,-0.073 C 69.064,7.173 67.731,6.6 66.212,6.6 c -3.186,0 -5.649,2.661 -5.649,6.08 0,3.417 2.482,6.06 5.649,6.06 1.463,0 2.815,-0.61 3.704,-1.682 0.056,-0.074 0.167,-0.093 0.241,-0.074 0.093,0.037 0.148,0.11 0.148,0.203 v 1.256 z M 66.786,16.43 c -2.037,0 -3.63,-1.645 -3.63,-3.75 0,-2.107 1.593,-3.751 3.63,-3.751 2.037,0 3.63,1.644 3.63,3.75 0,2.106 -1.593,3.75 -3.63,3.75 m 10.706,0.647 c 0.019,0 0.056,-0.019 0.074,-0.019 0.056,0 0.13,0.037 0.167,0.074 0.87,1.016 2.222,1.589 3.704,1.589 3.167,0 5.65,-2.66 5.65,-6.06 0,-1.663 -0.575,-3.196 -1.63,-4.323 A 5.44,5.44 0 0 0 81.437,6.6 c -1.463,0 -2.815,0.61 -3.704,1.663 -0.056,0.074 -0.148,0.092 -0.24,0.074 C 77.4,8.3 77.344,8.226 77.344,8.133 V 1.852 h -2.556 v 16.59 h 2.556 V 17.28 c 0,-0.093 0.056,-0.166 0.148,-0.203 m -0.26,-4.398 c 0,-2.106 1.594,-3.75 3.631,-3.75 2.037,0 3.63,1.644 3.63,3.75 0,2.106 -1.593,3.75 -3.63,3.75 -2.037,0 -3.63,-1.662 -3.63,-3.75 M 94.477,9.263 c 0.24,0 0.463,0.019 0.61,0.056 V 6.695 A 2.4,2.4 0 0 0 94.662,6.658 c -1.334,0 -2.556,0.684 -3.204,1.774 -0.056,0.092 -0.149,0.13 -0.241,0.092 A 0.22,0.22 0 0 1 91.05,8.321 V 6.898 h -2.537 v 11.566 h 2.556 v -5.1 c 0,-2.53 1.296,-4.1 3.408,-4.1 m 4.815,-2.367 h -2.593 v 11.566 h 2.593 z M 97.958,1.87 a 1.571,1.571 0 1 0 0,3.141 1.571,1.571 0 1 0 0,-3.14 m 8.928,4.729 c -3.556,0 -6.131,2.55 -6.131,6.08 0,1.717 0.612,3.25 1.704,4.36 1.112,1.108 2.667,1.718 4.408,1.718 1.445,0 2.556,-0.277 4.668,-1.83 l -1.463,-1.533 c -1.038,0.684 -2.001,1.016 -2.945,1.016 -2.149,0 -3.76,-1.607 -3.76,-3.732 0,-2.125 1.611,-3.732 3.76,-3.732 1.018,0 1.963,0.333 2.908,1.016 L 111.664,8.43 C 109.757,6.804 108.034,6.6 106.886,6.6 m 9.149,6.762 a 0.2,0.2 0 0 1 0.149,-0.055 h 0.018 c 0.056,0 0.111,0.037 0.167,0.073 l 4.093,5.063 h 3.149 l -5.297,-6.393 c -0.075,-0.092 -0.075,-0.222 0.018,-0.295 l 4.871,-4.86 h -3.13 l -4.204,4.213 c -0.056,0.055 -0.148,0.074 -0.241,0.055 a 0.23,0.23 0 0 1 -0.13,-0.203 V 1.87 h -2.574 v 16.591 h 2.556 v -4.508 c 0,-0.055 0.018,-0.13 0.074,-0.166 z"
       fill="#000000" />
    <path
       d="m 127.776,18.739 c 2.093,0 4.223,-1.275 4.223,-3.695 0,-1.589 -1,-2.68 -3.037,-3.344 l -1.39,-0.462 c -0.944,-0.314 -1.389,-0.758 -1.389,-1.367 0,-0.702 0.63,-1.183 1.519,-1.183 0.852,0 1.611,0.555 2.093,1.515 l 2.056,-1.108 c -0.759,-1.552 -2.334,-2.513 -4.149,-2.513 -2.297,0 -3.963,1.478 -3.963,3.492 0,1.607 0.963,2.679 2.944,3.307 l 1.427,0.462 c 1,0.314 1.426,0.72 1.426,1.367 0,0.98 -0.908,1.33 -1.686,1.33 -1.037,0 -1.963,-0.665 -2.407,-1.755 l -2.093,1.109 c 0.685,1.755 2.37,2.845 4.426,2.845 M 58.23,18.628 c 0.815,0 1.538,-0.074 1.945,-0.13 v -2.216 a 14,14 0 0 1 -1.278,0.073 c -1.037,0 -1.833,-0.184 -1.833,-2.42 V 9.187 c 0,-0.13 0.092,-0.222 0.222,-0.222 h 2.5 V 6.877 h -2.5 A 0.214,0.214 0 0 1 57.064,6.656 V 3.33 h -2.556 v 3.344 c 0,0.13 -0.093,0.222 -0.223,0.222 h -1.778 v 2.088 h 1.778 c 0.13,0 0.223,0.092 0.223,0.221 v 5.377 c 0,4.046 2.704,4.046 3.722,4.046"
       fill="#000000" />
  </g>
</svg>
