<?xml version="1.0" encoding="utf-8"?>
<!-- Generator: Adobe Illustrator 20.0.0, SVG Export Plug-In . SVG Version: 6.00 Build 0)  -->
<svg version="1.1" id="Layer_1" xmlns="http://www.w3.org/2000/svg" xmlns:xlink="http://www.w3.org/1999/xlink" x="0px" y="0px"
	 viewBox="0 0 1000 196.9" style="enable-background:new 0 0 1000 196.9;" xml:space="preserve">
<style type="text/css">
	.st0{fill:#0061FF;}
	.st1{display:none;}
	.st2{display:inline;}
	.st3{fill:none;}
</style>
<path class="st0" d="M116,37l-58,37l58,37l-58,37L0,110.8l58-37L0,37L58,0L116,37z M57.7,159.9l58-37l58,37l-58,37L57.7,159.9z
	 M116,110.8l58-37L116,37l57.7-37l58,37l-58,37l58,37l-58,37L116,110.8z"/>
<path d="M277.2,37h46.9c29.9,0,54.6,17.3,54.6,56.8v8.3c0,39.8-23.1,57.7-53.7,57.7h-47.8V37z M303.4,59.3v78.1h20.1
	c17,0,28.4-11.1,28.4-35.8v-6.5c0-24.7-12-35.8-29.3-35.8H303.4z M392.6,60.5h21l3.4,23.1c4-15.7,14.2-24.1,32.7-24.1h6.5v26.5
	h-10.8c-21.3,0-26.5,7.4-26.5,28.4v45.7h-25.9V60.5H392.6z M461.4,112.3v-2.8c0-33.3,21.3-51.5,50.3-51.5
	c29.6,0,50.3,18.2,50.3,51.5v2.8c0,32.7-20.1,50.3-50.3,50.3C479.6,162.3,461.4,145.1,461.4,112.3z M535.5,112v-2.5
	c0-18.5-9.3-29.6-24.1-29.6c-14.5,0-24.1,10.2-24.1,29.6v2.5c0,17.9,9.3,28.1,24.1,28.1C526.2,139.8,535.5,129.9,535.5,112z
	 M575.6,60.5h21.6l2.5,18.8C604.9,66.7,616,58,632.4,58c25.3,0,42,18.2,42,51.9v2.8c0,32.7-18.5,50-42,50
	c-15.7,0-26.5-7.1-31.8-18.5v50.3h-25.3L575.6,60.5L575.6,60.5z M648.1,112v-2.2c0-19.8-10.2-29.6-23.8-29.6
	c-14.5,0-24.1,11.1-24.1,29.6v1.9c0,17.6,9.3,28.7,23.8,28.7C638.9,140.1,648.1,130.6,648.1,112z M712.7,141.7l-2.2,18.2h-22.2V27.2
	h25.3v50.9c5.6-13,16.7-20.1,32.4-20.1c23.8,0.3,41.4,16.7,41.4,49.7v3.1c0,33-16.7,51.9-42,51.9
	C728.7,162.3,717.9,154.6,712.7,141.7z M760.8,110.8v-2.5c0-18.2-9.9-28.4-23.8-28.4c-14.2,0-24.1,11.4-24.1,28.7v2.2
	c0,18.5,9.6,29.3,23.8,29.3C751.9,140.1,760.8,130.6,760.8,110.8z M798.5,112.3v-2.8c0-33.3,21.3-51.5,50.3-51.5
	c29.6,0,50.3,18.2,50.3,51.5v2.8c0,32.7-20.4,50.3-50.3,50.3C816.7,162.3,798.5,145.1,798.5,112.3z M872.8,112v-2.5
	c0-18.5-9.3-29.6-24.1-29.6c-14.5,0-24.1,10.2-24.1,29.6v2.5c0,17.9,9.3,28.1,24.1,28.1C863.6,139.8,872.8,129.9,872.8,112z
	 M933,108.3l-34.9-47.8h29.9l20.1,29.9l20.4-29.9h29.6L962.7,108l37.3,51.9h-29.3l-22.8-33l-22.2,33h-30.6L933,108.3z"/>
<g id="Editble" class="st1">
	<g class="st2">
		<rect x="233" y="71.6" class="st3" width="506" height="71.8"/>
		<path d="M338.2,80.2h16.3c10.4,0,19,6.1,19,19.8v2.9c0,13.8-8,20-18.7,20h-16.6V80.2z M347.4,87.9v27.2h7c5.9,0,9.9-3.9,9.9-12.5
			v-2.2c0-8.6-4.1-12.5-10.2-12.5H347.4z M378.4,88.4h7.3l1.1,8c1.4-5.5,4.9-8.3,11.3-8.3h2.2v9.2h-3.7c-7.4,0-9.2,2.6-9.2,9.9V123
			h-9C378.4,123,378.4,88.4,378.4,88.4z M402.3,106.4v-1c0-11.6,7.4-17.9,17.5-17.9c10.3,0,17.5,6.4,17.5,17.9v1
			c0,11.4-7,17.5-17.5,17.5C408.6,123.9,402.3,117.8,402.3,106.4z M428.1,106.3v-0.8c0-6.5-3.2-10.3-8.3-10.3c-5,0-8.4,3.5-8.4,10.3
			v0.8c0,6.2,3.2,9.7,8.3,9.7C424.9,116,428.1,112.6,428.1,106.3z M442,88.4h7.6l0.9,6.6c1.9-4.4,5.7-7.4,11.4-7.4
			c8.8,0,14.6,6.4,14.6,18v1c0,11.4-6.4,17.3-14.6,17.3c-5.5,0-9.2-2.5-11-6.5v17.5H442V88.4z M467.3,106.4v-0.8
			c0-6.9-3.5-10.3-8.3-10.3c-5,0-8.4,3.8-8.4,10.3v0.7c0,6.1,3.2,10,8.2,10C464,116.1,467.3,112.7,467.3,106.4z M489.7,116.7
			L489,123h-7.8V76.8h8.8v17.8c1.9-4.5,5.8-7,11.2-7c8.2,0.1,14.3,5.8,14.3,17.3v1c0,11.5-5.8,18-14.6,18
			C495.3,123.9,491.5,121.1,489.7,116.7z M506.5,105.9v-0.8c0-6.4-3.5-9.8-8.3-9.8c-5,0-8.4,4-8.4,10v0.7c0,6.5,3.3,10.2,8.3,10.2
			C503.3,116.1,506.5,112.7,506.5,105.9z M519.6,106.4v-1c0-11.6,7.4-17.9,17.5-17.9c10.3,0,17.5,6.4,17.5,17.9v1
			c0,11.4-7.1,17.5-17.5,17.5C525.9,123.9,519.6,117.8,519.6,106.4z M545.4,106.3v-0.8c0-6.5-3.2-10.3-8.3-10.3
			c-5,0-8.4,3.5-8.4,10.3v0.8c0,6.2,3.2,9.7,8.3,9.7C542.2,116,545.4,112.6,545.4,106.3z M566.3,105l-12.1-16.7h10.4l7,10.4
			l7.1-10.4H589l-12.3,16.6l13,18h-10.2l-8-11.5l-7.7,11.5h-10.6L566.3,105z"/>
	</g>
</g>
</svg>
