<?xml version="1.0" encoding="utf-8"?>
<!-- Generator: Adobe Illustrator 15.0.2, SVG Export Plug-In . SVG Version: 6.00 Build 0)  -->
<!DOCTYPE svg PUBLIC "-//W3C//DTD SVG 1.1//EN" "http://www.w3.org/Graphics/SVG/1.1/DTD/svg11.dtd">
<svg version="1.1"
	 id="Layer_1" xmlns:dc="http://purl.org/dc/elements/1.1/" xmlns:cc="http://creativecommons.org/ns#" xmlns:svg="http://www.w3.org/2000/svg" xmlns:rdf="http://www.w3.org/1999/02/22-rdf-syntax-ns#" xmlns:inkscape="http://www.inkscape.org/namespaces/inkscape" xmlns:sodipodi="http://sodipodi.sourceforge.net/DTD/sodipodi-0.dtd" sodipodi:docname="AJAX.svg" inkscape:version="0.48.1 "
	 xmlns="http://www.w3.org/2000/svg" xmlns:xlink="http://www.w3.org/1999/xlink" x="0px" y="0px" width="584.8px"
	 height="196.061px" viewBox="0 0 584.8 196.061" enable-background="new 0 0 584.8 196.061" xml:space="preserve">
<sodipodi:namedview  inkscape:current-layer="Layer_1" inkscape:window-maximized="1" inkscape:window-y="-8" inkscape:window-x="-8" inkscape:cy="36.629003" inkscape:cx="358.12937" fit-margin-bottom="0" fit-margin-right="0" fit-margin-left="0" inkscape:zoom="1.3855368" fit-margin-top="0" showgrid="false" inkscape:window-width="1280" inkscape:pageshadow="2" inkscape:pageopacity="0" guidetolerance="10" bordercolor="#666666" borderopacity="1" inkscape:window-height="1004" objecttolerance="10" id="namedview37" pagecolor="#ffffff" gridtolerance="10">
	</sodipodi:namedview>
<g id="g3" transform="translate(0,-3.1386552e-6)">
	<path id="path5" inkscape:connector-curvature="0" fill="#003876" d="M239.601,240.469l11.482-24.482l11.484,24.482H239.601
		L239.601,240.469L239.601,240.469L239.601,240.469z M217.92,262.302h11.4l5.825-12.609h31.652l5.743,12.609h11.33l-26.668-54.926
		H244.96L217.92,262.302L217.92,262.302L217.92,262.302z"/>
	<path id="polygon7" inkscape:connector-curvature="0" fill="#003876" d="M298.456,207.377h10.726v54.926h-10.726V207.377
		L298.456,207.377z"/>
	<path id="path9" inkscape:connector-curvature="0" fill="#003876" d="M340.387,231.788v-15.492h20.695
		c8.767,0,13.229,1.278,13.229,7.706c0,6.499-4.462,7.786-13.229,7.786H340.387L340.387,231.788L340.387,231.788L340.387,231.788z
		 M329.657,262.302h10.728V240.7h16.998l15.938,21.603h13.221l-16.844-22.361c8.084-0.446,15.332-6.042,15.332-16.163
		c0-13.453-9.365-16.4-22.357-16.4h-33.017v54.927h0.001V262.302z"/>
	<path id="polygon11" inkscape:connector-curvature="0" fill="#003876" d="M398.562,207.377h10.725l10.584,37.773h0.141
		l10.508-37.773h10.277l10.657,37.693h0.145l10.505-37.693h10.503l-16.015,54.926h-10.277l-10.429-38.976h-0.151l-10.504,38.976
		h-10.491L398.562,207.377L398.562,207.377z"/>
	<path id="path13" inkscape:connector-curvature="0" fill="#003876" d="M500.339,240.469l11.487-24.482l11.478,24.482H500.339
		L500.339,240.469L500.339,240.469L500.339,240.469z M478.659,262.302h11.408l5.816-12.609h31.651l5.74,12.609h11.344
		l-26.676-54.926h-12.241L478.659,262.302L478.659,262.302L478.659,262.302z"/>
	<path id="polygon15" inkscape:connector-curvature="0" fill="#003876" d="M570.463,240.306l-26.815-32.931h13.141l19.034,23.267
		l18.969-23.267h13.225l-26.826,32.931v21.995h-10.726L570.463,240.306L570.463,240.306z"/>
	<path id="path17" inkscape:connector-curvature="0" fill="#003876" d="M659.758,224.074c-1.736-4.915-6.187-9.142-19.263-9.142
		c-7.255,0-14.579,1.812-14.579,6.869c0,2.349,1.359,4.841,12.316,6.202l12.995,1.962c12.312,1.894,19.576,6.646,19.576,15.866
		c0,12.997-12.396,17.833-27.058,17.833c-23.572,0-29.316-11.638-30.603-15.794l10.354-3.248c1.962,4.004,6.038,9.828,20.552,9.828
		c8.76,0,16.008-2.874,16.008-7.637c0-3.55-4.072-5.891-11.931-6.873l-13.146-1.811c-12.693-1.743-19.801-7.259-19.801-15.648
		c0-16.465,21.39-16.465,25.614-16.465c23.651,0,27.724,10.957,29.082,14.729L659.758,224.074L659.758,224.074L659.758,224.074z"/>
	<path id="path19" inkscape:connector-curvature="0" fill="#003876" d="M18.864,44.986h22.379V164.9
		c0,18.646-13.61,31.159-32.481,31.159H0v-21.064h6.352c7.681,0,12.512-3.521,12.512-11.854V44.986L18.864,44.986L18.864,44.986z
		 M18.864,0h22.379v22.383H18.864V0L18.864,0z"/>
	<path id="path21" inkscape:connector-curvature="0" fill="#003876" d="M78.068,90.624c0.435-16.893,10.312-25.887,23.483-25.887
		c13.17,0,22.821,8.994,23.471,25.887H78.068L78.068,90.624L78.068,90.624z M147.403,109.047V90.624
		c0-28.742-21.292-46.954-45.85-46.954c-21.517,0-45.864,14.036-45.864,57.269c0,45.636,26.545,56.611,49.371,56.611
		c14.91,0,29.178-5.277,40.141-17.999l-16.222-13.815c-6.593,6.795-15.803,10.747-24.36,10.747c-15.362,0-26.55-9.221-26.55-27.436
		H147.403L147.403,109.047z"/>
	<path id="path23" inkscape:connector-curvature="0" fill="#003876" d="M165.146,11.191h22.379v33.795h16.225v17.115h-16.225v64.722
		c0,6.15,2.409,8.342,7.879,8.342h8.346v21.064h-11.624c-15.585,0-26.98-9.891-26.98-27.429V62.101h-11.209V44.986h11.209V11.191
		L165.146,11.191L165.146,11.191z"/>
	<path id="path25" inkscape:connector-curvature="0" fill="#003876" d="M278.146,86.894c17.55,0,25.434,11.185,25.434,23.471
		c0,12.294-7.886,23.481-25.434,23.481h-36.431V86.894H278.146L278.146,86.894L278.146,86.894z M218.007,156.229h65.833
		c23.483,0,43.442-17.336,43.442-44.32c0-15.799-8.334-32.035-25.446-35.995v-0.432c18.212-8.121,23.044-20.627,23.044-33.568
		C324.878,17.338,309.064,0,278.574,0h-60.567V156.229L218.007,156.229L218.007,156.229L218.007,156.229z M275.938,21.072
		c17.118,0,25.234,10.308,25.234,22.378c0,12.279-8.116,22.386-25.234,22.386h-34.223V21.072H275.938L275.938,21.072z"/>
	<path id="path27" inkscape:connector-curvature="0" fill="#003876" d="M340.146,0h22.379v127.483c0,5.046,2.854,7.682,8.357,7.682
		h7.668v21.064h-9.873c-16.248,0-28.531-7.017-28.531-26.994V0L340.146,0L340.146,0z"/>
	<path id="path29" inkscape:connector-curvature="0" fill="#003876" d="M387.981,44.986h22.382v66.257
		c0,15.15,9.431,23.922,22.174,23.922c12.501,0,21.924-8.771,21.924-23.922V44.986h22.389v111.243h-22.389v-11.855h-0.42
		c-7.029,8.782-17.126,13.175-28.759,13.175c-17.541,0-37.301-13.393-37.301-38.617V44.986L387.981,44.986z"/>
	<path id="path31" inkscape:connector-curvature="0" fill="#003876" d="M511.257,90.624c0.455-16.893,10.311-25.887,23.479-25.887
		c13.163,0,22.815,8.994,23.49,25.887H511.257L511.257,90.624L511.257,90.624z M580.6,109.047V90.624
		c0-28.742-21.285-46.954-45.864-46.954c-21.505,0-45.869,14.036-45.869,57.269c0,45.636,26.561,56.611,49.372,56.611
		c14.938,0,29.189-5.277,40.163-17.999l-16.244-13.814c-6.584,6.795-15.785,10.748-24.347,10.748
		c-15.357,0-26.554-9.22-26.554-27.437L580.6,109.047L580.6,109.047L580.6,109.047z"/>
</g>
</svg>
