<svg xmlns="http://www.w3.org/2000/svg" viewBox="0 0 56 26" fill="none">
  <!-- Official Microsoft AI "MAI" monogram, from the microsoft.ai site header. -->
  <path d="M55.1321 10.9639C55.1321 7.20253 55.2011 4.64896 55.4082 0.922134H51.5088C51.7158 4.64896 51.7849 7.20253 51.7849 10.9639V15.0358C51.7849 18.7971 51.7158 21.3852 51.5088 25.0775H55.4082C55.2011 21.3852 55.1321 18.7971 55.1321 15.0358V10.9639Z" fill="#242424"/>
  <path d="M41.0615 3.78627L39.8883 0.922134H37.6108C37.3002 1.78483 36.8861 2.78555 36.541 3.61373C33.8149 10.4808 30.2606 18.4175 27.293 25.0775H30.4332C30.8127 23.6972 31.3304 22.3169 31.848 20.9021C32.1772 20.0525 32.516 19.1974 32.8622 18.3385C33.9823 18.2339 35.3546 18.2105 37.8261 18.2105H38.8613C41.0422 18.2105 42.3687 18.2284 43.416 18.3023C43.8273 19.3023 44.238 20.3065 44.6503 21.3162C45.1334 22.5239 45.6165 23.8697 45.9616 25.0775H50.2751C47.4454 18.6591 43.6841 10.1702 41.0615 3.78627ZM38.8613 16.071H37.8261C35.9982 16.071 34.7718 16.071 33.8035 16.032C35.1907 12.6748 36.6625 9.27471 38.107 5.90573C38.1649 6.03686 38.2288 6.17972 38.3009 6.33984C39.7609 9.57389 41.133 12.7938 42.4839 16.0465C41.5805 16.071 40.4466 16.071 38.8613 16.071Z" fill="#242424"/>
  <path d="M25.7986 10.964C25.7986 7.20266 25.8676 4.64909 26.0747 0.922264H21.2781C19.002 7.32792 16.3584 13.7029 13.5491 20.249C10.5632 13.6835 8.14279 7.6554 5.50813 0.922264H0.953125C1.12566 2.57863 1.22919 5.51178 1.22919 7.27167V18.7282C1.22919 20.1085 1.12566 23.3177 0.953125 25.0776H3.9898C3.81726 23.3177 3.71374 20.1085 3.71374 18.7282L3.74445 5.96073C6.54302 12.3188 9.35056 18.761 11.7195 25.0776H14.3421C16.7428 18.5336 19.5507 11.7704 22.3779 5.3251C22.4269 7.08499 22.4514 8.84073 22.4514 10.964V15.0359C22.4514 18.7972 22.3824 21.3853 22.1753 25.0776H26.0747C25.8676 21.3853 25.7986 18.7972 25.7986 15.0359V10.964Z" fill="#242424"/>
</svg>
