<svg role="img" viewBox="0 0 264 146" xmlns="http://www.w3.org/2000/svg">
  <title>Nubank</title>
  <path fill="#820AD1" d="M47.6 13.9C56 5.1 67 0 80 0c25.3 0 42.1 18.5 45.3 46.2 1 9 1 21.7 1 36.4v59.6H91.6v-40.7s-.1-34.8-.3-41.4c-.9-28.4-17.7-46.2-43.7-46.2C39.8 22.2 35.6 32.3 35 47.8c-.1 2.1-.1 9.8 0 19.8v17.2c0 26.5 0 57.4 0 57.4H.2V79.5c0-6.5-.3-13.1 0-19.6.4-7.3 1.6-14.4 5-21.1 7.8-15.2 23.7-25 40.7-25h1.7Z"/>
  <path fill="#820AD1" d="M263.7 85.6c.3-6.5 0-13.1 0-19.6V3.4h-34.8s0 30.9 0 57.4v17.1c.1 10.1.1 17.7 0 19.9-.6 15.4-4.8 25.5-12.6 33.8-25.9 0-42.7-17.8-43.7-46.2-.2-6.5-.3-22.7-.3-41.4V3.3l-34.8.1v59.6c0 14.7 0 27.4 1 36.4 3.2 27.7 20 46.2 45.3 46.2 13 0 24.1-5.1 32.4-13.9h1.8c17 0 32.9-9.8 40.7-25 3.4-6.7 4.7-13.8 5-21.1Z"/>
</svg>
